<svg width="300" height="300" viewBox="0 0 300 300" fill="none" xmlns="http://www.w3.org/2000/svg">
<path d="M254.087 163.737L248.75 158.4L257.625 149.525L262.925 154.862L254.087 163.737ZM248.875 219.575L240.025 210.713L234.675 216.05L243.513 224.913L248.875 219.575ZM300 75V275H0V75H136.1L100 32.8125L109.763 25L150 71.875L190.237 25L200 32.8125L163.9 75H300V75ZM36.8875 237.413C45.3125 245.8 78.9125 250 112.513 250C146.1 250 179.7 245.8 188.125 237.413C196.038 229.513 200 201.775 200 174.175C200 146.913 196.125 119.787 188.375 112.05C180.412 104.112 145.888 100 111.612 100C78.1 100 44.7875 103.925 36.65 112.05C29.1125 119.562 25.2375 145.4 25.0125 171.875C24.7875 200.225 28.75 229.3 36.8875 237.413ZM225 163.663C225 176.425 234.95 186.8 247.525 187.462C261.238 188.2 272.638 177.288 272.638 163.663C272.638 150.55 262.012 139.838 248.8 139.838C235.7 139.838 225 150.425 225 163.663ZM275 125V118.062H225V125H275ZM225 224.85C225 238.125 235.75 248.688 248.787 248.688C262.012 248.688 272.625 237.963 272.625 224.85C272.625 211.738 262 201.025 248.787 201.025C235.7 201.025 225 211.6 225 224.85ZM275 100H225V106.938H275V100Z" fill="#24305E"/>
</svg>
