<svg width="300" height="300" viewBox="0 0 300 300" fill="none" xmlns="http://www.w3.org/2000/svg">
<path d="M29.95 150H0V125H29.95V150ZM125 69.275V25H100V69.275H125ZM65.0875 80.225L38.1375 53.275L20.4625 70.95L47.4125 97.9L65.0875 80.225ZM183.35 50.275L156.913 76.7L174.587 94.375L201.025 67.95L183.35 50.275ZM37.1 186.613L9.625 210.6L25.9125 229.562L53.3875 205.575L37.1 186.613ZM300 221.525C300 251.05 275.625 275 245.575 275H116.925C86.875 275 62.5 251.05 62.5 221.525C62.5 211.9 65.1375 202.9 69.675 195.113C57.625 183.775 50 167.863 50 150C50 115.475 77.975 87.5 112.5 87.5C129.113 87.5 144.037 94.1 155.175 104.7C163.287 101.7 172.05 100 181.25 100C220.887 100 253.162 130.537 255.262 168.95C280.688 173.438 300 195.262 300 221.525ZM75 150C75 160.75 79.625 170.35 86.9375 177.15C93 173.2 99.8 170.262 107.238 168.95C108.338 148.825 117.775 130.925 132.163 118.375C126.412 114.775 119.775 112.5 112.5 112.5C91.825 112.5 75 129.325 75 150ZM275 221.525C275 195.575 250.262 188.8 231.387 190.125C234.113 172.137 228.387 125 181.25 125C132.812 125 130.475 173.175 131.113 190.112C113.8 189.062 87.5 195.05 87.5 221.525C87.5 237.225 100.7 250 116.925 250H245.562C261.8 250 275 237.225 275 221.525Z" fill="#24305E"/>
</svg>
