<svg width="300" height="300" viewBox="0 0 300 300" fill="none" xmlns="http://www.w3.org/2000/svg">
<path fill-rule="evenodd" clip-rule="evenodd" d="M300 300H0V275H25V100H0V75H300V100H275V275H300V300ZM137.5 237.5H112.5V287.5H137.5V237.5ZM187.5 237.5H162.5V287.5H187.5V237.5ZM250 100H50V275H87.5V212.5H212.5V275H250V100ZM175 187.5H125V125H175V187.5ZM112.5 187.5H62.5V125H112.5V187.5ZM237.5 187.5H187.5V125H237.5V187.5ZM112.5 37.5V50C112.5 56.8875 106.912 62.5 100 62.5C93.1 62.5 87.5 56.9 87.5 50V12.5C87.5 5.6 93.1 0 100 0C106.912 0 112.5 5.6125 112.5 12.5V25H187.5V12.5C187.5 5.6125 193.088 0 200 0C206.912 0 212.5 5.6125 212.5 12.5V50C212.5 56.8875 206.912 62.5 200 62.5C193.088 62.5 187.5 56.8875 187.5 50V37.5H112.5ZM231.25 37.5V43.75C231.25 47.2 228.45 50 225 50C221.55 50 218.75 47.2 218.75 43.75V18.75C218.75 15.3 221.55 12.5 225 12.5C228.45 12.5 231.25 15.3 231.25 18.75V25H237.5V37.5H231.25ZM68.75 25V18.75C68.75 15.3 71.55 12.5 75 12.5C78.45 12.5 81.25 15.3 81.25 18.75V43.75C81.25 47.2 78.45 50 75 50C71.55 50 68.75 47.2 68.75 43.75V37.5H62.5V25H68.75Z" fill="#24305E"/>
</svg>
